<?xml version="1.0" encoding="UTF-8"?>
<svg id="Laag_1" xmlns="http://www.w3.org/2000/svg" version="1.1" viewBox="0 0 300.2 595.3">
  <!-- Generator: Adobe Illustrator 29.5.1, SVG Export Plug-In . SVG Version: 2.1.0 Build 141)  -->
  <defs>
    <style>
      .st0 {
        fill: #f6a316;
      }

      .st1 {
        fill: #66b32e;
      }

      .st2 {
        fill: #6ec6d9;
      }

      .st3 {
        fill: #fdf9d4;
      }

      .st4 {
        fill: #f3e600;
      }

      .st5 {
        fill: #a6529a;
      }

      .st6 {
        fill: none;
        stroke: #1e2847;
        stroke-linecap: round;
        stroke-linejoin: round;
        stroke-width: 2.9px;
      }

      .st7 {
        fill: #e52421;
      }

      .st8 {
        fill: #2a4b9b;
      }
    </style>
  </defs>
  <path class="st2" d="M27,414.8l4.2-1.5,145.1-61.4h2.3c6.9,16.7,16.8,31.5,29.3,43.7l-1.5,2.7-109.7,111.1-3.4,2.3c-28.5-28.1-50.6-60-65.9-96.8h-.4Z"/>
  <path class="st5" d="M251.3,424.7c.4,0,.8,1.1,1.1,1.1,8,3.4,19,5.7,27.8,7.6s21.3-.4,25.1,6.4l2.1,155.1c-36.5,4.2-81.7-3.7-116.3-17.3l2.3-4.2,58.4-146.8v-1.5s-.4-.4-.4-.4Z"/>
  <path class="st4" d="M92.4,85.9l3.4,2.7,110,113.1,1.5,1.1c-12.5,12.6-22.4,27.4-29.2,43.4h-1.9c0-.4-144.1-59.9-144.1-59.9l-4.6-1.9c0,.4,0,.8-.4,1.1,0-.4,0-.8.4-1.1,15.2-36.1,36.8-70.7,64.9-98.5h0Z"/>
  <path class="st0" d="M190.7,20.8l1.9,4.6,57.6,145.1.8,2.7s.8,0,1.1-.4c0,0-.8,0-1.1.4-16,6.9-30.4,16.4-42.5,28.6h-2.3c0-.4-110-113.5-110-113.5l-3.4-2.7c26.2-25.9,64.2-51.4,98.4-64.7h-.4Z"/>
  <path class="st7" d="M251.7,173.1s-.8,0-1.1.4l-.8-2.7L192.2,25.7l-1.9-4.6C226.1,7.1,266.3,2.1,304.3.9l.2,160v1.9c-18.2,0-36.5,3.5-53.6,10.3h.8Z"/>
  <path class="st8" d="M207.9,395.5c12.6,12.5,27.4,22.4,43.4,29.2v1.5s-58,146.8-58,146.8l-2.3,4.2c-37.3-14.8-69.6-37.9-97.8-65.6l3.4-2.3,109.7-111.1,1.5-2.7Z"/>
  <path class="st3" d="M27.1,185.6c0-.4,0-.8.4-1.1l4.6,1.9,144.1,59.5,1.5,1.5c-6.8,16.4-10.2,33.8-10.2,51.3h-2.3s-154.3,1.3-154.3,1.3h-4.6c0-42.2,4.5-74.9,20.8-114.4h0Z"/>
  <path class="st1" d="M6.3,300h4.6s154.3-1.3,154.3-1.3l2.3,1.1c0,17.1,3.5,34.2,9.9,50.2l-1.1,1.5-145.1,61.4-4.2,1.5c-16-38-20.6-74.5-20.7-114.8v.4Z"/>
  <line class="st6" x1="10.9" y1="300" x2="165.2" y2="298.7"/>
  <path class="st6" d="M192.9,573.1l58.4-146.8h.8c8,3,19,5.3,27.8,7.2,8.7,1.9,21.3-.4,25.1,6.4l2.1,155.1c-36.5,4.2-81.7-3.7-116.3-17.3-34.6-13.6-69.6-37.9-97.8-65.6-28.2-27.7-50.6-60-65.9-96.8-16-38-20.6-74.5-20.7-114.8,0-42.2,4.5-74.9,20.8-114.4s0-.8.4-1.1c15.2-36.1,36.8-70.7,64.9-98.5,28.1-27.8,64.2-51.4,98.4-64.7C224.9,8.2,266.7,2.5,304.7,1.3l.2,160"/>
  <line class="st6" x1="96.3" y1="509.3" x2="206" y2="397.8"/>
  <line class="st6" x1="176.3" y1="351.5" x2="31.2" y2="413.2"/>
  <line class="st6" x1="32.1" y1="186.3" x2="176.2" y2="245.8"/>
  <line class="st6" x1="95.8" y1="88.6" x2="205.8" y2="201.7"/>
  <line class="st6" x1="192.2" y1="25.7" x2="250.2" y2="170.9"/>
  <path class="st6" d="M251.3,424.7c-16-6.8-30.8-16.7-43.4-29.2-12.6-12.5-22.5-27.3-29.3-43.3-6.9-16-.8-1.5-.8-1.9-6.5-16-9.9-33.1-9.9-50.2s0-.8,0-1.1c0-17.5,3.4-35,10.2-51.3,6.8-16.4,0-.8.4-1.1,6.8-16.4,16.7-31.2,29.2-43.4,12.5-12.2.4-.4.8-.8,12.1-12.2,26.6-21.7,42.5-28.6,16-6.9.8,0,1.1-.4,17.1-6.9,35-10.7,53.6-10.3"/>
</svg>